<?xml version="1.0" standalone="no"?>
<!DOCTYPE svg PUBLIC "-//W3C//DTD SVG 20010904//EN"
 "http://www.w3.org/TR/2001/REC-SVG-20010904/DTD/svg10.dtd">
<svg version="1.0" xmlns="http://www.w3.org/2000/svg"
 width="1024.000000pt" height="1024.000000pt" viewBox="0 0 1024.000000 1024.000000"
 preserveAspectRatio="xMidYMid meet">

<g transform="translate(0.000000,1024.000000) scale(0.100000,-0.100000)"
fill="#000000" stroke="none">
<path d="M4422 8493 c-13 -3 -38 -20 -57 -39 -29 -29 -35 -42 -35 -77 0 -105
102 -169 187 -117 45 27 66 73 60 127 -5 50 -28 80 -74 99 -33 14 -40 15 -81
7z"/>
<path d="M3984 8124 c-50 -21 -74 -59 -74 -117 0 -44 4 -53 40 -89 39 -39 42
-40 92 -36 44 5 57 11 85 42 26 28 33 44 33 77 0 95 -92 158 -176 123z"/>
<path d="M4956 8068 c-340 -31 -640 -312 -702 -658 -67 -373 135 -750 474
-885 l42 -17 0 -82 c1 -128 48 -209 155 -263 135 -69 304 -18 382 115 23 39
28 60 31 138 l4 91 54 23 c198 81 354 258 429 485 33 99 45 274 25 381 -49
268 -221 492 -463 604 -122 57 -278 82 -431 68z m246 -187 c124 -32 212 -82
304 -175 127 -127 183 -266 184 -450 0 -168 -61 -317 -180 -437 -61 -62 -157
-129 -185 -129 -3 0 -5 18 -5 40 0 51 30 129 68 177 162 207 120 496 -94 644
-105 72 -270 93 -386 49 -221 -83 -338 -318 -269 -540 11 -34 43 -97 71 -140
43 -65 54 -91 63 -149 6 -39 8 -73 5 -76 -12 -12 -135 71 -193 130 -231 235
-234 626 -6 867 63 68 170 142 246 172 100 40 260 47 377 17z m-29 -435 c51
-25 93 -68 122 -126 53 -104 42 -198 -34 -307 -90 -128 -111 -192 -111 -338
l0 -85 -100 0 -100 0 0 83 c-1 151 -24 230 -97 327 -58 78 -77 136 -71 213 9
109 66 194 163 239 52 24 172 21 228 -6z m-5 -1015 c11 -6 11 -17 2 -50 -15
-58 -57 -83 -128 -78 -66 5 -98 33 -108 95 l-7 42 114 0 c63 0 120 -4 127 -9z"/>
<path d="M5119 7184 c-52 -43 -86 -44 -124 -4 -35 36 -81 40 -113 10 -44 -41
-15 -110 65 -157 39 -23 59 -28 108 -27 70 1 109 18 154 69 51 58 39 122 -27
138 -16 4 -34 -4 -63 -29z"/>
<path d="M3291 7983 c-42 -29 -27 -57 66 -125 47 -35 124 -91 170 -126 62 -46
91 -62 110 -60 34 4 52 32 37 56 -14 23 -320 259 -344 265 -10 3 -28 -2 -39
-10z"/>
<path d="M6679 7913 c-59 -43 -137 -100 -175 -128 -74 -54 -90 -85 -57 -110
10 -8 24 -15 30 -15 13 0 313 199 351 233 37 34 20 97 -27 97 -9 0 -64 -35
-122 -77z"/>
<path d="M2815 7616 c-40 -17 -84 -63 -101 -103 -23 -54 -18 -140 11 -189 77
-132 279 -130 358 4 20 33 22 34 66 28 143 -20 441 -56 468 -56 47 0 61 30 30
65 -21 25 -33 28 -212 50 -105 13 -221 27 -259 31 -69 9 -69 9 -82 47 -32 93
-94 137 -191 137 -32 -1 -71 -7 -88 -14z"/>
<path d="M7133 7611 c-45 -21 -98 -85 -108 -131 -6 -27 -9 -28 -78 -35 -40 -4
-79 -9 -87 -10 -8 -2 -44 -6 -80 -10 -245 -26 -284 -33 -302 -55 -24 -30 -23
-47 5 -64 19 -12 54 -10 282 20 184 23 261 30 264 22 2 -6 22 -31 44 -55 99
-108 270 -84 338 48 41 81 13 192 -64 253 -32 26 -48 31 -105 34 -50 2 -77 -2
-109 -17z"/>
<path d="M3067 7109 c-188 -29 -343 -144 -426 -314 -82 -171 -73 -378 24 -540
20 -33 50 -74 66 -90 16 -17 29 -34 29 -37 0 -4 -24 -17 -52 -31 -161 -74
-295 -227 -353 -402 -15 -44 -28 -81 -29 -82 -1 -1 -24 5 -51 13 -82 25 -187
15 -264 -26 -121 -65 -176 -167 -169 -313 3 -73 22 -140 180 -632 97 -302 200
-626 228 -720 58 -192 125 -338 200 -435 89 -115 84 -99 66 -182 -57 -276 -41
-537 43 -723 66 -145 191 -289 315 -364 31 -18 95 -47 143 -64 83 -30 96 -31
233 -31 129 1 154 4 225 27 71 23 177 77 257 130 l26 18 7 -39 c10 -60 58
-154 99 -196 20 -20 60 -48 89 -64 l52 -27 1080 0 1080 0 56 28 c31 15 76 48
99 73 44 48 100 155 100 192 0 12 2 22 4 22 2 0 27 -16 56 -35 137 -92 256
-129 420 -129 99 0 125 4 188 26 111 40 178 84 278 183 81 81 96 102 146 205
81 164 93 220 93 420 0 170 -13 260 -55 388 -15 46 -16 58 -5 66 73 60 239
293 282 398 27 67 300 892 403 1218 59 187 62 198 58 280 -3 63 -10 96 -27
128 -83 160 -259 230 -424 167 -11 -5 -19 7 -32 47 -59 180 -203 355 -352 430
l-69 35 38 44 c49 57 103 160 123 235 19 75 19 213 0 289 -52 197 -204 352
-395 401 -76 19 -208 21 -281 4 -269 -64 -448 -300 -449 -590 0 -160 69 -320
189 -441 42 -42 94 -85 115 -96 l39 -20 -149 -159 c-234 -250 -253 -269 -256
-264 -2 3 -50 102 -107 220 -142 295 -201 374 -329 439 -200 101 -445 39 -523
-132 -26 -58 -25 -169 2 -241 25 -67 92 -144 154 -177 41 -22 50 -33 90 -118
25 -51 45 -96 45 -99 0 -7 -69 3 -255 38 -207 39 -287 38 -358 -3 -31 -18 -48
-24 -53 -16 -3 6 -25 20 -48 30 -61 28 -149 24 -361 -16 -103 -20 -189 -35
-190 -33 -2 2 16 46 40 98 37 80 50 99 86 123 66 42 107 86 137 147 23 46 27
68 27 135 0 96 -25 158 -87 222 -65 66 -123 87 -248 87 -100 1 -109 -1 -173
-32 -78 -39 -181 -130 -227 -202 -17 -27 -52 -96 -77 -152 -99 -228 -136 -313
-139 -316 -5 -7 -384 404 -384 415 0 5 20 21 45 36 117 74 210 191 261 327 25
67 28 89 28 200 1 107 -3 136 -24 200 -44 135 -146 262 -265 331 -98 57 -246
85 -358 68z m218 -209 c83 -32 182 -131 215 -215 31 -80 39 -220 16 -299 -41
-139 -135 -236 -281 -289 -38 -14 -78 -28 -87 -32 -14 -6 -18 -19 -18 -66 0
-66 -17 -41 160 -240 47 -52 122 -138 167 -190 45 -52 109 -123 143 -159 59
-64 70 -83 50 -95 -6 -4 -9 -9 -6 -13 2 -4 0 -15 -3 -26 -6 -15 -37 13 -177
159 -215 225 -252 255 -311 255 -36 0 -50 -6 -74 -30 -20 -20 -28 -34 -22 -44
4 -8 123 -134 263 -280 281 -294 312 -318 380 -297 27 8 45 22 62 49 23 37
138 282 269 572 107 235 108 237 159 293 103 113 241 139 313 59 12 -13 21
-42 24 -79 5 -53 2 -62 -25 -99 -23 -32 -43 -46 -81 -59 -28 -9 -54 -22 -58
-28 -8 -13 -126 -275 -255 -565 -89 -202 -132 -274 -203 -344 -43 -42 -157
-115 -142 -91 5 7 -19 12 -66 15 -113 7 -170 35 -268 131 -74 73 -231 239
-384 405 -51 56 -109 92 -145 92 -14 0 -19 4 -14 12 4 7 3 8 -4 4 -6 -4 -9
-12 -6 -19 3 -9 -7 -12 -36 -9 -28 3 -40 0 -40 -9 0 -7 -7 -21 -17 -31 -14
-16 -14 -18 -1 -18 9 0 18 -12 21 -29 3 -16 12 -35 19 -42 9 -9 13 -33 11 -64
-4 -95 -2 -138 9 -159 13 -24 38 -45 54 -46 11 0 174 -154 174 -164 0 -4 -4
-5 -9 -2 -4 3 -11 -18 -14 -46 -13 -109 -95 -216 -200 -263 -70 -30 -147 -47
-152 -31 -12 32 -183 734 -194 793 -10 51 3 258 20 329 44 185 247 370 417
382 l57 4 -4 79 c-4 98 4 146 27 153 32 11 62 69 62 122 -1 120 -111 244 -256
288 -17 5 -24 0 -34 -24 -18 -42 -20 -34 -8 29 25 140 107 231 253 284 65 23
169 18 250 -13z m3809 15 c74 -19 135 -55 181 -107 47 -51 85 -133 84 -178 0
-19 -3 -29 -6 -22 -13 33 -110 1 -190 -65 -52 -43 -103 -140 -103 -196 0 -48
24 -101 56 -122 23 -15 24 -20 24 -125 0 -61 2 -110 4 -110 2 0 39 -7 80 -15
181 -34 340 -179 390 -355 8 -30 20 -119 26 -197 13 -163 23 -99 -112 -651
l-81 -333 -31 6 c-157 31 -245 117 -295 288 -11 34 -21 73 -24 86 -5 20 19 49
159 191 142 146 164 172 164 200 0 44 -16 69 -54 85 -65 27 -88 11 -318 -224
-324 -332 -361 -356 -538 -356 -102 0 -108 1 -182 38 -98 48 -179 134 -236
250 -44 89 -291 620 -321 690 -22 50 -33 60 -88 75 -112 33 -156 186 -73 256
56 47 135 46 223 -2 92 -50 118 -91 322 -511 104 -216 204 -410 222 -431 39
-45 85 -58 135 -37 41 18 90 65 303 292 93 99 182 193 197 209 29 31 35 46 18
46 -6 0 -15 11 -20 25 -5 14 -26 33 -45 42 -34 16 -38 16 -68 0 -18 -10 -115
-105 -216 -213 l-184 -195 -23 42 -24 41 122 136 c226 253 421 462 430 462 5
0 8 30 6 66 l-3 65 -75 25 c-110 37 -184 86 -235 156 -128 174 -122 404 16
553 58 63 89 83 167 111 78 28 135 30 216 9z m-4888 -1481 c45 -22 65 -68 109
-254 20 -85 86 -355 146 -599 60 -244 109 -449 109 -455 0 -24 -20 21 -20 46
0 46 -20 43 -21 -4 0 -33 -2 -38 -9 -23 -8 19 -9 19 -9 -2 -1 -13 -5 -23 -11
-23 -5 0 -10 -9 -10 -20 0 -11 -4 -20 -10 -20 -5 0 -7 8 -4 18 5 13 4 14 -4 3
-6 -8 -8 -20 -5 -28 3 -7 1 -13 -4 -13 -11 0 -36 88 -28 100 3 4 1 10 -3 12
-5 1 -96 263 -202 581 -190 571 -192 578 -178 615 15 39 67 82 100 82 11 0 35
-7 54 -16z m5837 -14 c14 -11 31 -36 37 -55 11 -32 5 -56 -74 -297 -47 -145
-123 -382 -170 -528 -91 -287 -103 -320 -111 -320 -10 0 4 55 15 58 18 6 11
22 -10 22 -11 0 -20 -5 -20 -10 0 -6 -11 0 -24 12 -13 13 -21 28 -18 33 3 6
-1 4 -9 -3 -12 -11 -12 -14 1 -22 13 -8 13 -10 -2 -10 -9 0 -19 6 -22 13 -3 6
-3 0 0 -15 4 -18 2 -28 -6 -28 -6 0 -8 -6 -4 -12 5 -10 4 -10 -5 -2 -9 8 5 78
59 300 83 338 143 592 170 722 21 98 35 128 72 149 35 19 92 16 121 -7z
m-2798 -110 c22 -5 105 -21 185 -35 80 -14 168 -30 196 -36 l51 -10 55 -97
c92 -161 241 -442 236 -447 -2 -2 -121 16 -263 40 -382 66 -393 67 -460 63
-36 -2 -77 -12 -103 -26 l-42 -22 0 269 0 270 26 20 c29 23 58 26 119 11z
m-290 -12 c2 -7 6 -133 7 -279 l3 -266 -40 18 c-61 28 -134 23 -425 -27 -292
-51 -374 -61 -369 -48 6 15 127 239 201 373 37 68 68 127 68 131 0 22 50 38
229 71 207 39 318 48 326 27z m-1840 -214 c21 -32 16 -30 -18 6 -16 17 -22 27
-13 24 8 -3 22 -17 31 -30z m-221 -79 c3 -8 1 -15 -4 -15 -6 0 -10 7 -10 15 0
8 2 15 4 15 2 0 6 -7 10 -15z m856 -259 c0 -3 -4 -8 -10 -11 -5 -3 -10 -1 -10
4 0 6 5 11 10 11 6 0 10 -2 10 -4z m1121 -76 c20 -6 43 -18 50 -26 12 -15 10
-16 -20 -9 -37 8 -122 8 -161 0 -14 -3 -72 -12 -130 -20 -58 -9 -114 -18 -125
-20 -11 -3 -38 -7 -60 -10 -22 -3 -69 -9 -105 -15 -191 -30 -264 -39 -269 -35
-3 3 2 12 10 19 13 14 70 25 319 62 63 10 174 27 245 39 151 26 196 29 246 15z
m514 1 c209 -32 587 -94 623 -103 25 -6 42 -16 42 -25 0 -8 -3 -12 -7 -10 -5
3 -37 8 -73 11 -36 4 -74 9 -85 11 -11 3 -38 7 -60 10 -22 3 -130 19 -240 36
-327 50 -346 52 -392 36 -32 -11 -40 -11 -36 -1 15 38 108 53 228 35z m-1519
-145 c0 -65 31 -113 93 -141 49 -22 50 -22 595 54 l359 50 32 -25 c60 -45 146
-42 215 8 24 18 30 17 200 -7 746 -106 744 -105 800 -77 57 29 90 111 68 170
-8 22 -6 23 24 17 81 -17 217 -67 263 -96 60 -38 165 -127 165 -140 0 -6 -640
-8 -1600 -7 -880 2 -1600 6 -1600 10 0 3 35 38 77 78 83 76 141 109 244 139
35 11 64 20 64 20 1 1 1 -23 1 -53z m3835 -399 c-10 -9 -11 -8 -5 6 3 10 9 15
12 12 3 -3 0 -11 -7 -18z m-116 3 c3 -5 1 -10 -4 -10 -6 0 -11 5 -11 10 0 6 2
10 4 10 3 0 8 -4 11 -10z m-4342 -90 c39 -12 89 -38 125 -65 56 -42 112 -103
112 -122 0 -5 -40 -48 -88 -96 l-89 -89 -27 56 c-50 101 -138 153 -213 125
-79 -30 -109 -137 -60 -210 29 -43 71 -66 213 -119 296 -110 414 -257 414
-515 -1 -199 -100 -384 -249 -463 -201 -108 -437 -72 -587 91 l-55 59 92 86
c50 48 95 88 100 90 4 2 15 -11 24 -28 25 -48 86 -111 122 -127 78 -32 183 -3
227 64 52 79 60 208 18 289 -20 40 -81 102 -120 123 -12 6 -75 31 -141 55
-130 48 -187 82 -244 145 -103 114 -130 283 -72 453 17 49 76 123 126 159 85
60 247 77 372 39z m1147 -75 l0 -95 -115 0 -115 0 0 -545 0 -545 -125 0 -125
0 0 545 0 544 -137 3 -138 3 -3 93 -3 92 381 0 380 0 0 -95z m410 -317 c0
-318 3 -425 14 -465 33 -122 97 -183 195 -183 59 0 94 15 132 57 73 77 79 126
79 605 l0 398 123 0 122 0 -2 -407 c-2 -239 -7 -436 -14 -476 -23 -141 -132
-293 -253 -352 -169 -83 -374 -38 -505 111 -54 62 -83 112 -113 194 -22 63
-23 75 -26 498 l-3 432 125 0 126 0 0 -412z m1365 397 c141 -37 291 -159 354
-287 52 -108 66 -177 66 -333 -1 -130 -3 -147 -33 -235 -68 -204 -192 -327
-388 -386 -48 -15 -97 -18 -269 -19 l-210 0 -3 638 -2 637 213 0 c159 0 228
-4 272 -15z m750 -202 c55 -116 103 -214 106 -218 3 -3 50 94 104 215 l98 220
123 0 c68 0 124 -2 124 -5 0 -3 -31 -75 -70 -160 -79 -175 -172 -399 -219
-526 l-31 -85 0 -397 0 -397 -130 0 -130 0 0 395 0 396 -51 132 c-93 240 -211
481 -303 620 l-19 28 149 -3 149 -3 100 -212z m-4430 157 l5 -35 -14 35 c-18
42 -20 58 -6 44 5 -5 12 -25 15 -44z m99 42 c3 -5 -1 -9 -9 -9 -8 0 -12 4 -9
9 3 4 7 8 9 8 2 0 6 -4 9 -8z m-23 -45 c-10 -9 -11 -8 -5 6 3 10 9 15 12 12 3
-3 0 -11 -7 -18z m5041 -29 c24 -26 31 -29 39 -17 7 12 9 12 8 -1 0 -8 -4 -24
-9 -35 -8 -19 -9 -19 -9 3 -1 13 -4 21 -8 19 -5 -2 -21 11 -36 29 -37 43 -25
44 15 2z m-5077 -36 c-3 -7 -5 -18 -5 -23 0 -19 -18 -8 -22 14 -3 17 0 23 14
23 12 0 17 -5 13 -14z m1833 -1379 c35 -26 49 -81 32 -122 -7 -17 -17 -31 -22
-31 -5 0 2 -14 14 -31 34 -45 29 -102 -11 -143 l-31 -31 -130 -4 -130 -3 0
196 0 195 83 3 c107 4 162 -4 195 -29z m274 -92 c3 -110 6 -132 22 -150 25
-28 81 -29 96 -2 5 11 10 76 10 144 0 135 1 137 58 137 52 0 54 -6 51 -151 -4
-147 -15 -180 -72 -223 -40 -30 -153 -30 -193 0 -64 47 -69 62 -72 225 l-3
149 49 0 50 0 4 -129z m977 119 c139 -20 215 -124 181 -251 -26 -96 -109 -139
-265 -139 l-74 0 -3 196 c-2 108 -1 198 1 200 7 7 93 4 160 -6z m-401 -15
c134 -57 163 -235 53 -328 -42 -35 -89 -47 -188 -47 l-83 0 0 195 0 195 90 0
c59 0 104 -5 128 -15z m772 -55 l34 -71 34 66 c18 36 39 68 46 71 8 3 34 4 60
2 l46 -3 -65 -117 c-64 -115 -65 -118 -65 -192 l0 -76 -50 0 -50 0 0 70 c0 65
-3 76 -49 159 -28 49 -57 105 -65 125 l-15 36 53 0 52 0 34 -70z"/>
<path d="M2450 4130 c0 -5 5 -10 10 -10 6 0 10 5 10 10 0 6 -4 10 -10 10 -5 0
-10 -4 -10 -10z"/>
<path d="M5940 3428 l0 -451 78 5 c148 9 236 90 288 263 26 90 25 269 -4 360
-29 96 -90 188 -149 225 -47 30 -64 35 -160 44 l-53 5 0 -451z"/>
<path d="M4190 2460 c0 -29 1 -30 50 -30 36 0 52 4 56 15 10 26 -16 45 -62 45
-42 0 -44 -1 -44 -30z"/>
<path d="M4190 2315 l0 -36 53 3 c50 3 52 4 52 33 0 29 -2 30 -52 33 l-53 3 0
-36z"/>
<path d="M5555 2472 c-3 -3 -5 -45 -5 -94 l0 -88 45 0 c61 0 95 32 95 88 0 55
-25 83 -83 92 -26 4 -49 5 -52 2z"/>
<path d="M5090 2380 l0 -90 39 0 c53 0 69 8 86 41 39 74 -4 139 -90 139 l-35
0 0 -90z"/>
<path d="M3974 6700 c-11 -4 -33 -22 -47 -40 -63 -75 -5 -210 90 -210 73 0
133 56 133 124 0 95 -91 161 -176 126z"/>
<path d="M5025 5920 c-17 -38 -19 -39 -72 -42 l-54 -3 26 -34 c31 -43 31 -54
0 -95 -14 -18 -25 -36 -25 -39 0 -4 22 -7 48 -7 48 0 82 -20 82 -47 0 -6 6
-16 14 -23 12 -9 18 -4 35 29 20 39 23 40 75 43 l55 3 -30 44 -30 43 25 39
c15 21 26 41 26 44 0 3 -25 5 -55 5 -55 0 -55 0 -71 40 -9 22 -19 40 -24 40
-4 0 -15 -18 -25 -40z"/>
<path d="M3663 1922 c-31 -5 -73 -58 -73 -92 0 -16 11 -42 26 -59 54 -64 159
-26 159 57 0 64 -48 104 -112 94z"/>
<path d="M4203 1840 c-42 -25 -52 -63 -26 -98 40 -54 6 -52 910 -49 l841 2 26
24 c42 40 32 101 -21 129 -16 9 -242 12 -860 12 -815 0 -839 -1 -870 -20z"/>
</g>
</svg>
